<?xml version="1.0" encoding="UTF-8"?>
<svg width="14px" height="15px" viewBox="0 0 14 15" version="1.1" xmlns="http://www.w3.org/2000/svg" xmlns:xlink="http://www.w3.org/1999/xlink">
    <!-- Generator: sketchtool 55.2 (78181) - https://sketchapp.com -->
    <title>450D67E0-D8D3-4529-B856-D46CFEB65A46</title>
    <desc>Created with sketchtool.</desc>
    <g id="Maquetas" stroke="none" stroke-width="1" fill="none" fill-rule="evenodd">
        <g id="Mobile-Menu" transform="translate(-28.000000, -73.000000)" fill="#F5A623">
            <g id="Menu">
                <g id="Perfil" transform="translate(15.000000, 62.000000)">
                    <path d="M19.3048786,21.957772 L16.7421503,20.4781846 C16.5914532,20.3911191 16.498595,20.2303287 16.498595,20.0562854 L16.498595,17.045942 L13,15.0623926 L13,21.88905 C13,22.1789466 13.1546466,22.4468135 13.40575,22.5918057 L19.3049663,25.9976303 L19.3049663,21.957772 L19.3048786,21.957772 Z M22.7608185,17.0437478 L22.7608185,20.0568998 C22.7608185,20.230592 22.6681358,20.3912068 22.5176142,20.4781846 L19.9507609,21.960054 L19.9507609,26 L25.8537513,22.5918935 C26.1048546,22.4469013 26.2595012,22.1790344 26.2595012,21.8891377 L26.2595012,15.0602862 L22.7608185,17.0437478 Z M16.8989911,16.490987 L19.3862392,15.0550201 C19.5369363,14.9681301 19.7224772,14.9681301 19.8731742,15.0549323 L22.337866,16.4779096 L25.8717436,14.4782987 L20.0354567,11.10881 C19.7844411,10.96373 19.4750601,10.96373 19.2240445,11.10881 L13.3799463,14.4828626 L16.8989911,16.490987 Z" id="Fill-1"></path>
                </g>
            </g>
        </g>
    </g>
</svg>